<svg version="1.1" id="Layer_1" xmlns="http://www.w3.org/2000/svg" xmlns:xlink="http://www.w3.org/1999/xlink" x="0px" y="0px"
	 width="100%" viewBox="0 0 2000 1997" enable-background="new 0 0 2000 1997" xml:space="preserve">
<path fill="white" opacity="1.000000" stroke="none" 
	d="
M138.000000,1069.000000 
	C381.328247,1069.000000 624.156494,1069.017212 866.984741,1068.963623 
	C884.259705,1068.959717 899.419067,1074.621826 911.661011,1086.450073 
	C923.111633,1097.513550 929.891602,1111.585449 929.900146,1127.713379 
	C930.040649,1392.207886 930.102661,1656.702393 929.848938,1921.196655 
	C929.822021,1949.226318 909.883789,1973.701660 879.589539,1978.726318 
	C869.615784,1980.380493 859.098267,1979.439453 848.886597,1978.788818 
	C838.171448,1978.106201 827.505615,1976.489136 816.852966,1975.026978 
	C800.463257,1972.777344 783.970703,1970.982422 767.761414,1967.781128 
	C743.085144,1962.907593 718.330017,1958.013428 694.129272,1951.261230 
	C665.602844,1943.302124 637.516357,1933.692993 609.449890,1924.177612 
	C576.256958,1912.923950 544.365601,1898.403809 513.501892,1881.945923 
	C486.473419,1867.533325 459.669434,1852.447144 434.079865,1835.656494 
	C406.140594,1817.323853 379.314392,1797.207520 352.775818,1776.860718 
	C337.302490,1764.997437 323.080536,1751.441528 308.775635,1738.131226 
	C294.158417,1724.530518 279.666748,1710.734375 265.970337,1696.221436 
	C252.227646,1681.659790 239.484665,1666.150513 226.391693,1650.980469 
	C201.982544,1622.698608 180.360092,1592.337158 160.417709,1560.814209 
	C148.998230,1542.763306 138.354813,1524.199829 127.898911,1505.565918 
	C108.963127,1471.819580 92.442749,1436.854980 79.049568,1400.572144 
	C68.844322,1372.925537 59.350922,1344.940674 51.231335,1316.621582 
	C43.853626,1290.890137 38.304893,1264.598999 32.818615,1238.372925 
	C29.369127,1221.883423 27.199739,1205.100586 25.040937,1188.373657 
	C22.690470,1170.161743 20.352463,1151.902710 19.246288,1133.589355 
	C18.263872,1117.324707 23.462543,1102.527222 34.412079,1090.101318 
	C47.567478,1075.172241 64.408333,1068.891479 84.003609,1068.982422 
	C101.835381,1069.065186 119.667839,1069.000000 138.000000,1069.000000 
z"/>
<path fill="white" opacity="1.000000" stroke="none" 
	d="
M319.000000,930.000366 
	C239.835480,930.000366 161.170837,930.079102 82.506516,929.954041 
	C57.742935,929.914673 38.502365,919.161011 26.492353,897.505737 
	C20.449898,886.610596 17.777449,874.456665 19.734844,861.496887 
	C21.438412,850.217590 21.752230,838.735657 23.012274,827.380188 
	C24.527088,813.728577 25.697613,799.984192 28.250496,786.513672 
	C33.762806,757.427673 39.173527,728.271729 46.255596,699.546143 
	C56.060783,659.775452 69.181366,620.966064 85.033829,583.164917 
	C92.405838,565.585876 100.430779,548.269531 108.544807,531.015198 
	C129.056610,487.397186 153.651001,446.084625 181.313538,406.700592 
	C196.517441,385.054321 213.229446,364.436005 229.842026,343.822083 
	C239.912476,331.326019 250.842819,319.489746 261.837738,307.780396 
	C275.048187,293.711517 288.234863,279.552032 302.350006,266.418579 
	C319.204224,250.736511 336.511322,235.441971 354.567413,221.175797 
	C377.291138,203.221695 400.273376,185.419006 424.428741,169.500320 
	C450.411774,152.377151 477.552795,136.917572 504.781433,121.799934 
	C545.613037,99.129791 588.676086,81.361916 632.805786,66.135254 
	C674.680786,51.686546 717.411804,40.413849 760.930054,32.334896 
	C782.063354,28.411600 803.444397,25.725187 824.784729,23.048189 
	C839.561218,21.194578 854.442261,19.495792 869.307739,19.175297 
	C897.173218,18.574530 921.895264,38.432678 928.235901,65.549263 
	C929.283142,70.027802 929.928650,74.715591 929.929993,79.306931 
	C930.009338,342.799713 930.002319,606.292542 929.998596,869.785339 
	C929.998169,899.274719 906.162781,926.510193 876.363647,929.020691 
	C870.749756,929.493591 865.111938,929.958496 859.485046,929.960022 
	C679.490051,930.008972 499.495026,930.000366 319.000000,930.000366 
z"/>
<path fill="white" opacity="1.000000" stroke="none" 
	d="
M1072.000000,379.000000 
	C1072.000000,280.335449 1071.993652,182.170914 1072.003784,84.006371 
	C1072.006836,54.503010 1096.108154,27.335684 1125.474487,25.219509 
	C1137.878662,24.325653 1150.507568,25.884058 1162.987671,26.899685 
	C1174.853516,27.865311 1186.700562,29.291170 1198.480225,31.028408 
	C1215.499878,33.538448 1232.579346,35.902119 1249.401123,39.433586 
	C1273.365234,44.464443 1297.458740,49.364410 1320.877930,56.385357 
	C1351.007812,65.418159 1380.948120,75.425865 1410.183838,86.999817 
	C1438.061890,98.036346 1465.470215,110.582329 1492.089966,124.383759 
	C1518.540894,138.097626 1544.023560,153.760727 1569.436035,169.374374 
	C1598.256104,187.081635 1625.104858,207.653458 1651.327148,228.979141 
	C1662.761108,238.277908 1673.742920,248.161819 1684.574219,258.165405 
	C1698.736694,271.245575 1713.094849,284.186096 1726.369629,298.137360 
	C1743.039551,315.656769 1758.902222,333.961639 1774.742798,352.248535 
	C1796.250732,377.078217 1815.801392,403.463409 1833.473755,431.111969 
	C1848.369995,454.417114 1862.515625,478.246857 1876.006592,502.395813 
	C1900.418823,546.094055 1919.779541,592.067444 1936.055786,639.397034 
	C1949.273682,677.833069 1959.806274,716.986816 1967.659180,756.808472 
	C1972.039551,779.021179 1974.917725,801.546021 1977.977173,823.997742 
	C1980.076660,839.405212 1981.943848,854.895691 1982.776489,870.410095 
	C1983.599487,885.743652 1979.239014,899.958923 1969.377563,912.089966 
	C1956.493774,927.939148 1939.681396,935.048096 1919.358154,935.043030 
	C1656.863892,934.978088 1394.369507,935.000488 1131.875244,934.999939 
	C1102.637085,934.999878 1077.146118,912.915283 1072.964966,883.863464 
	C1072.400269,879.940369 1072.040039,875.948975 1072.038940,871.989136 
	C1071.993530,707.826111 1072.000000,543.663025 1072.000000,379.000000 
z"/>
<path fill="#FF0000" opacity="1.000000" stroke="none" 
	d="
M1672.003906,1499.978638 
	C1704.625244,1441.329956 1727.952393,1379.473633 1743.482666,1314.484741 
	C1683.115479,1271.725098 1674.280518,1198.366577 1699.975098,1146.666382 
	C1735.584961,1075.015991 1815.551880,1058.960083 1871.154663,1083.097778 
	C1938.508179,1112.336670 1967.437256,1185.719971 1943.763916,1250.821533 
	C1920.785522,1314.011841 1858.917969,1342.630249 1808.311768,1337.236816 
	C1770.946289,1400.982056 1743.362549,1468.735718 1726.565063,1540.830078 
	C1761.115601,1569.434082 1779.661011,1606.507446 1776.401733,1650.967407 
	C1771.611450,1716.314209 1735.824585,1759.622314 1671.809570,1774.340454 
	C1618.882080,1786.509644 1568.518188,1766.804443 1535.032227,1720.867065 
	C1514.713501,1726.914062 1494.029175,1732.311035 1473.886841,1739.275879 
	C1453.403931,1746.358276 1433.235962,1754.479370 1413.339600,1763.091553 
	C1396.505981,1770.377808 1380.173218,1778.848633 1363.783081,1787.120850 
	C1354.584595,1791.763306 1345.792236,1797.204834 1336.659424,1801.985840 
	C1334.000732,1803.377563 1333.732056,1805.209106 1334.045410,1807.567627 
	C1337.153564,1830.961060 1333.097412,1853.208862 1324.125854,1874.898560 
	C1317.740112,1890.336792 1308.396240,1903.805786 1296.804321,1915.390259 
	C1277.746094,1934.436157 1254.875000,1947.468628 1228.027588,1951.761719 
	C1215.540039,1953.758545 1202.552612,1954.713257 1189.988403,1953.700562 
	C1165.978760,1951.765259 1143.945923,1943.524414 1124.333984,1928.980469 
	C1106.986816,1916.116211 1093.204224,1900.328491 1083.689331,1881.065918 
	C1076.865356,1867.251221 1072.597778,1852.588623 1070.867554,1837.083618 
	C1067.683228,1808.548218 1072.847900,1781.789673 1086.720703,1756.805786 
	C1098.371582,1735.823364 1114.757080,1719.249634 1135.539307,1707.158813 
	C1152.610718,1697.226807 1171.007935,1691.860352 1190.720337,1689.834473 
	C1216.917236,1687.142090 1241.391113,1692.533325 1264.406250,1704.334351 
	C1281.500610,1713.099731 1296.297729,1725.162842 1308.078247,1741.490112 
	C1333.049561,1733.688477 1358.285889,1726.436157 1383.061035,1717.852417 
	C1401.075684,1711.611084 1418.718384,1704.133667 1436.092407,1696.250000 
	C1454.133911,1688.063232 1471.695923,1678.809814 1489.377441,1669.844849 
	C1495.945679,1666.514771 1502.128906,1662.418091 1508.730225,1659.162964 
	C1513.605957,1656.758667 1511.792114,1652.695435 1511.923950,1649.186035 
	C1512.169189,1642.665039 1511.112671,1635.968140 1512.237427,1629.635620 
	C1514.141357,1618.917358 1516.498413,1608.134033 1520.131348,1597.898438 
	C1527.991943,1575.752075 1541.734375,1557.619507 1559.795044,1542.497192 
	C1575.986328,1528.939819 1594.357544,1520.293335 1614.772949,1515.630005 
	C1631.103394,1511.899902 1647.541992,1510.813599 1664.199341,1514.020264 
	C1666.802734,1509.411499 1669.363159,1504.878662 1672.003906,1499.978638 
z"/>
</svg>
