<svg version="1.1" id="Layer_1" xmlns="http://www.w3.org/2000/svg" xmlns:xlink="http://www.w3.org/1999/xlink" x="0px" y="0px" width="48.072" viewBox="0 0 48.072 48" enable-background="new 0 0 2000 1997" xml:space="preserve" height="48"><path fill="#001F3F" opacity="1.000000" stroke="none" d="M3.317 25.694c5.849 0 11.685 0 17.522 -0.001 0.415 0 0.78 0.136 1.074 0.42 0.275 0.266 0.438 0.604 0.438 0.992 0.003 6.357 0.005 12.715 -0.001 19.072 -0.001 0.674 -0.48 1.262 -1.208 1.383 -0.24 0.04 -0.492 0.017 -0.738 0.001 -0.258 -0.016 -0.514 -0.055 -0.77 -0.09 -0.394 -0.054 -0.79 -0.097 -1.18 -0.174 -0.593 -0.117 -1.188 -0.235 -1.77 -0.397 -0.686 -0.191 -1.361 -0.422 -2.035 -0.651 -0.798 -0.271 -1.564 -0.62 -2.306 -1.015 -0.65 -0.346 -1.294 -0.709 -1.909 -1.113 -0.672 -0.441 -1.316 -0.924 -1.954 -1.413 -0.372 -0.285 -0.714 -0.611 -1.058 -0.931 -0.351 -0.327 -0.7 -0.659 -1.029 -1.007 -0.33 -0.35 -0.637 -0.723 -0.951 -1.087 -0.587 -0.68 -1.106 -1.41 -1.586 -2.167 -0.274 -0.434 -0.53 -0.88 -0.782 -1.328 -0.455 -0.811 -0.852 -1.652 -1.174 -2.524 -0.245 -0.664 -0.474 -1.337 -0.669 -2.018 -0.177 -0.618 -0.311 -1.25 -0.443 -1.881 -0.083 -0.396 -0.135 -0.8 -0.187 -1.202 -0.056 -0.438 -0.113 -0.877 -0.139 -1.317 -0.024 -0.391 0.101 -0.747 0.365 -1.045 0.316 -0.359 0.721 -0.51 1.192 -0.508 0.429 0.002 0.857 0 1.298 0" stroke-width="0.024036000000000002"/><path fill="#001F3F" opacity="1.000000" stroke="none" d="M7.667 22.353c-1.903 0 -3.794 0.002 -5.684 -0.001 -0.595 -0.001 -1.058 -0.259 -1.346 -0.78 -0.145 -0.262 -0.209 -0.554 -0.162 -0.866 0.041 -0.271 0.048 -0.547 0.079 -0.82 0.036 -0.328 0.065 -0.658 0.126 -0.982 0.133 -0.699 0.263 -1.4 0.433 -2.09 0.236 -0.956 0.551 -1.889 0.932 -2.797 0.177 -0.423 0.37 -0.839 0.565 -1.253 0.493 -1.048 1.084 -2.041 1.749 -2.988 0.365 -0.52 0.767 -1.016 1.166 -1.511 0.242 -0.3 0.505 -0.585 0.769 -0.866 0.318 -0.338 0.634 -0.678 0.974 -0.994 0.405 -0.377 0.821 -0.745 1.255 -1.087 0.546 -0.432 1.099 -0.859 1.679 -1.242 0.625 -0.412 1.277 -0.783 1.931 -1.147 0.981 -0.545 2.017 -0.972 3.077 -1.338a21.416 21.416 0 0 1 3.08 -0.812c0.508 -0.094 1.022 -0.159 1.535 -0.223 0.355 -0.045 0.713 -0.085 1.07 -0.093 0.67 -0.014 1.264 0.463 1.416 1.115 0.025 0.108 0.041 0.22 0.041 0.331 0.002 6.333 0.002 12.667 0.002 19 0 0.709 -0.573 1.363 -1.289 1.424 -0.135 0.011 -0.27 0.023 -0.406 0.023 -4.326 0.001 -8.653 0.001 -12.991 0.001" stroke-width="0.024036000000000002"/><path fill="#001F3F" opacity="1.000000" stroke="none" d="M25.767 9.11c0 -2.372 0 -4.731 0 -7.09 0 -0.709 0.579 -1.362 1.285 -1.413 0.298 -0.021 0.602 0.016 0.902 0.04 0.285 0.023 0.57 0.057 0.853 0.099 0.409 0.06 0.82 0.117 1.224 0.202 0.576 0.121 1.155 0.239 1.718 0.407 0.724 0.217 1.444 0.458 2.147 0.736 0.67 0.265 1.329 0.567 1.969 0.899 0.636 0.33 1.248 0.706 1.859 1.081 0.693 0.426 1.338 0.92 1.968 1.433 0.275 0.224 0.539 0.461 0.799 0.702 0.34 0.314 0.686 0.625 1.005 0.961 0.401 0.421 0.782 0.861 1.163 1.301 0.517 0.597 0.987 1.231 1.412 1.896 0.358 0.56 0.698 1.133 1.022 1.713 0.587 1.05 1.052 2.155 1.443 3.293a21.404 21.404 0 0 1 0.76 2.822c0.105 0.534 0.174 1.075 0.248 1.615 0.05 0.37 0.095 0.743 0.115 1.116 0.02 0.369 -0.085 0.71 -0.322 1.002 -0.31 0.381 -0.714 0.552 -1.202 0.552 -6.309 -0.002 -12.619 -0.001 -18.928 -0.001 -0.703 0 -1.315 -0.531 -1.416 -1.229 -0.014 -0.094 -0.022 -0.19 -0.022 -0.285 -0.001 -3.946 -0.001 -7.892 -0.001 -11.849" stroke-width="0.024036000000000002"/><path fill="#FF0000" opacity="1.000000" stroke="none" d="M40.188 36.053c0.784 -1.41 1.345 -2.896 1.718 -4.459 -1.451 -1.028 -1.663 -2.791 -1.046 -4.034 0.856 -1.722 2.778 -2.108 4.114 -1.528 1.619 0.703 2.314 2.467 1.745 4.031 -0.552 1.519 -2.039 2.207 -3.256 2.077 -0.898 1.532 -1.561 3.161 -1.965 4.894 0.83 0.688 1.276 1.579 1.198 2.647 -0.115 1.571 -0.975 2.612 -2.514 2.965 -1.272 0.293 -2.483 -0.181 -3.288 -1.285 -0.488 0.145 -0.986 0.275 -1.47 0.442 -0.492 0.17 -0.977 0.365 -1.455 0.572 -0.405 0.175 -0.797 0.379 -1.191 0.578 -0.221 0.112 -0.432 0.242 -0.652 0.357 -0.064 0.033 -0.07 0.077 -0.063 0.134 0.075 0.562 -0.023 1.097 -0.238 1.618 -0.153 0.371 -0.378 0.695 -0.657 0.973 -0.458 0.458 -1.008 0.771 -1.653 0.874 -0.3 0.048 -0.612 0.071 -0.914 0.047 -0.577 -0.047 -1.107 -0.245 -1.578 -0.594 -0.417 -0.309 -0.748 -0.689 -0.977 -1.152 -0.164 -0.332 -0.267 -0.684 -0.308 -1.057 -0.077 -0.686 0.048 -1.329 0.381 -1.93 0.28 -0.504 0.674 -0.903 1.173 -1.193 0.41 -0.239 0.853 -0.368 1.326 -0.416 0.63 -0.065 1.218 0.065 1.771 0.349 0.411 0.211 0.767 0.501 1.05 0.893 0.6 -0.188 1.207 -0.362 1.802 -0.568 0.433 -0.15 0.857 -0.33 1.275 -0.519 0.434 -0.197 0.856 -0.419 1.281 -0.635 0.158 -0.08 0.307 -0.179 0.465 -0.257 0.117 -0.058 0.074 -0.155 0.077 -0.24 0.006 -0.157 -0.019 -0.318 0.008 -0.47 0.046 -0.258 0.102 -0.517 0.19 -0.763 0.189 -0.532 0.519 -0.968 0.953 -1.332 0.389 -0.326 0.831 -0.534 1.321 -0.646 0.393 -0.09 0.788 -0.116 1.188 -0.039 0.063 -0.111 0.124 -0.22 0.188 -0.337" stroke-width="0.024036000000000002"/></svg>

